<svg height="48pt" viewBox="0 0 48 48" width="48pt" xmlns="http://www.w3.org/2000/svg" xmlns:xlink="http://www.w3.org/1999/xlink"><linearGradient id="a" gradientTransform="matrix(38.001 0 0 36.99 5.999 7.01)" gradientUnits="userSpaceOnUse" x1="1.092103" x2=".249266" y1=".766828" y2=".088449"><stop offset="0" stop-color="#f9d423"/><stop offset=".51562375651" stop-color="#ff4e50"/><stop offset=".99130434783" stop-color="#8a2387"/></linearGradient><linearGradient id="b" gradientTransform="matrix(-48 0 0 -48 48 48)" gradientUnits="userSpaceOnUse" x1=".03125" x2=".938923" y1=".333333" y2=".78717"><stop offset="0" stop-color="#ffe53b"/><stop offset=".98695652174" stop-color="#ff005b"/></linearGradient><path d="m30.475 7.016c-.765.024-1.499.129-2.172.338-2.672.839-5.177 3.024-6.699 5.011l-.827 1.078s-1.217-.479-1.855-.47c-.991.02-1.571.461-2.193 1.127-.434.463-.73.998-.916 1.652-.8 2.802-2.174 3.704-6.352 4.891-1.697.481-2.741 1.491-3.225 3.121-.313 1.053-.316 2.758-.007 3.498.336.804 1.243 2.084 1.406 1.984.074-.046.187-.438.252-.871.064-.433.223-1.042.353-1.354l.237-.566.64.627c.476.465.931.705 1.77.938.62.172 1.184.312 1.254.312.245 0 .124-.339-.368-1.018-.49-.677-.632-1.128-.351-1.128.08 0 .429.117.775.261.464.194.872.233 1.549.149.506-.063.979-.15 1.053-.196.074-.045-.171-.344-.545-.664s-.632-.63-.574-.687c.057-.058.575-.104 1.15-.104 1.222 0 1.732-.346 2.244-1.527.168-.386.373-.703.455-.703.083 0 .185.36.227.801.044.456.337 1.328.682 2.025.547 1.109.605 1.349.597 2.545-.005.726-.065 1.832-.135 2.457-.178 1.602-.264 1.647-2.791 1.514-1.238-.066-2.783-.407-2.783-.407s3.075 3.066 3.922 3.575c.487.292 1.386.662 1.996.822 1.088.285 1.117.283 1.569-.045.588-.427 1.542-2.386 3.208-6.596.72-1.817 1.378-3.47 1.463-3.672.088-.207.356-.407.616-.461 1.296-.266 2.8-.56 3.523-1.273 1.586-1.376 1.303-2.182 1.203-3.344 0 0 1.193-.863 2.893-.254 1.787.628 2.742 1.451 3.326 3.737 1.198 3.878.03 9.072-2.625 11.8-1.426 1.466-3.959 2.9-6.408 3.627-1.201.357-1.867.442-3.848.493-2.426.062-3.63-.077-5.707-.659-3.394-.798-6.434-2.487-9.881-2.642.36.435.744.849 1.139 1.252.07.071.138.144.209.215.387.382.79.747 1.207 1.097.088.074.176.148.265.221.421.341.855.668 1.303.975.089.061.181.118.272.177.464.307.939.6 1.429.868.063.034.128.065.192.099.475.253.963.487 1.461.701.07.03.138.063.209.092.528.221 1.068.416 1.619.592.091.029.182.058.273.086.536.162 1.081.302 1.635.42.184.039.369.077.555.111.136.025.272.05.41.072.193.032.387.057.582.082.168.023.336.047.506.065.244.026.49.045.736.062.101.007.201.018.303.024.37.02.743.031 1.119.031 11.08 0 20-8.92 20-20 0-.439-.019-.873-.047-1.305-.006-.099-.014-.199-.021-.299-.03-.368-.068-.733-.118-1.095-.008-.06-.014-.12-.023-.18-.064-.439-.14-.875-.232-1.305-.001-.004-.001-.009-.002-.013-.103-.486-.232-.962-.369-1.434-.095-.319-.2-.635-.309-.947-.058-.167-.12-.331-.182-.496-.448-1.18-.998-2.309-1.648-3.371-.003-.005-.005-.011-.008-.016-.892-.145-1.658-.25-1.658-.25s.506-.291 1.086-.654c-.016-.022-.034-.043-.049-.065-.617-.887-1.305-1.719-2.055-2.492-.036-.037-.067-.078-.103-.115-2.903-.199-5.963-.171-9.614 2.154 1.915-3.407 4.653-3.941 7.704-3.847-.182-.143-.37-.28-.557-.416-1.469-.453-3.047-.784-4.547-.836-.261-.01-.519-.01-.773-.002zm-11.5 7.984.025 2.264-2 .736c.844-.798 1.507-1.792 1.975-3zm-8.975 7v1c-.667-.357-1.333-.341-2-.166z" fill="url(#a)"/><path d="m25.639 4.364c-1.197-.101-2.09-1.159-1.992-2.362.099-1.202 1.155-2.096 2.359-1.994 6.028.502 11.654 3.274 15.737 7.758 4.073 4.484 6.311 10.35 6.256 16.414-.058 6.37-2.644 12.465-7.179 16.937-4.546 4.46-10.677 6.94-17.037 6.882s-12.446-2.648-16.91-7.19c-4.454-4.553-6.93-10.694-6.872-17.064.011-1.206.997-2.176 2.201-2.165 1.205.011 2.173.999 2.162 2.205-.047 5.211 1.981 10.234 5.624 13.96 3.654 3.715 8.631 5.837 13.834 5.884 5.204.047 10.219-1.984 13.939-5.632 3.71-3.66 5.827-8.645 5.875-13.857.044-4.96-1.778-9.762-5.116-13.431s-7.943-5.929-12.881-6.345zm-18.134 10.296c-.559 1.062-1.856 1.462-2.896.891-1.04-.57-1.43-1.896-.872-2.958 2.382-4.523 6.126-8.16 10.669-10.358 1.068-.521 2.345-.059 2.852 1.032.507 1.09.052 2.398-1.015 2.918-3.727 1.802-6.78 4.767-8.738 8.475z" fill="url(#b)" fill-rule="evenodd"/></svg>