<?xml version="1.0" encoding="UTF-8" standalone="no"?>
<!-- Created with Inkscape (http://www.inkscape.org/) -->
<svg xmlns:dc="http://purl.org/dc/elements/1.1/" xmlns:cc="http://creativecommons.org/ns#" xmlns:rdf="http://www.w3.org/1999/02/22-rdf-syntax-ns#" xmlns:svg="http://www.w3.org/2000/svg" xmlns="http://www.w3.org/2000/svg" version="1.1" width="248.57143" height="248.57143" id="svg2">
  <defs id="defs4"/>
  <metadata id="metadata7">
    <rdf:RDF>
      <cc:Work rdf:about="">
        <dc:format>image/svg+xml</dc:format>
        <dc:type rdf:resource="http://purl.org/dc/dcmitype/StillImage"/>
        <dc:title/>
      </cc:Work>
    </rdf:RDF>
  </metadata>
  <g transform="translate(-285.71429,-365.21932)" id="layer1">
    <path d="m 534.28571,489.50504 a 124.28571,124.28571 0 1 1 -248.57142,0 124.28571,124.28571 0 1 1 248.57142,0 z" id="path2985" style="fill:#ff2a2a;fill-opacity:1;stroke:none"/>
    <path d="m 410.95099,366.72566 c -2.58308,27.36396 -8.65031,40.05107 -11.05825,50.92231 -1.20397,5.43562 -1.46799,10.43171 0.0939,16.4659 1.56198,6.03418 4.9428,13.10708 11.02693,22.80831 l 0.84582,-0.51837 c -6.05732,-9.65847 -9.37823,-16.64875 -10.90162,-22.53389 -1.5234,-5.88512 -1.24697,-10.66164 -0.0626,-16.00851 2.36863,-10.69371 8.4647,-23.56944 11.05825,-51.04428 l -1.00244,-0.0914 z" id="path3099" style="font-size:medium;font-style:normal;font-variant:normal;font-weight:normal;font-stretch:normal;text-indent:0;text-align:start;text-decoration:none;line-height:normal;letter-spacing:normal;word-spacing:normal;text-transform:none;direction:ltr;block-progression:tb;writing-mode:lr-tb;text-anchor:start;baseline-shift:baseline;color:#000000;fill:#000000;fill-opacity:1;stroke:#000000;stroke-width:2.86813521;stroke-miterlimit:4;stroke-opacity:1;stroke-dasharray:none;marker:none;visibility:visible;display:inline;overflow:visible;enable-background:accumulate;font-family:Sans;-inkscape-font-specification:Sans"/>
    <g id="g3915">
      <path d="m 385.71429,486.64789 a 22.857143,22.857143 0 1 1 -45.71429,0 22.857143,22.857143 0 1 1 45.71429,0 z" transform="matrix(1.75,0,0,1.75,-275.40217,-355.3606)" id="path2993" style="fill:#f2f2f2;fill-opacity:1;stroke:none"/>
      <path d="m 385.71429,486.64789 a 22.857143,22.857143 0 1 1 -45.71429,0 22.857143,22.857143 0 1 1 45.71429,0 z" transform="matrix(1.75,0,0,1.75,-173.40218,-355.3606)" id="path2993-7" style="fill:#f2f2f2;fill-opacity:1;stroke:none"/>
      <rect width="105.71429" height="60" x="356.38351" y="456.27319" id="rect3031" style="fill:#f2f2f2;fill-opacity:1;stroke:none"/>
      <rect width="36.36549" height="10.101525" x="339.30023" y="488.7002" id="rect3035" style="fill:#333333;fill-opacity:1;stroke:none"/>
      <rect width="36.36549" height="10.101525" x="-511.93369" y="352.93729" transform="matrix(0,-1,1,0,0,0)" id="rect3035-4" style="fill:#333333;fill-opacity:1;stroke:none"/>
      <path d="m 473.76156,476.57523 a 7.0710678,7.0710678 0 1 1 -14.14214,0 7.0710678,7.0710678 0 1 1 14.14214,0 z" transform="translate(-1.545035,3.0538815)" id="path3055" style="fill:#333333;fill-opacity:1;stroke:none"/>
      <path d="m 473.76156,476.57523 a 7.0710678,7.0710678 0 1 1 -14.14214,0 7.0710678,7.0710678 0 1 1 14.14214,0 z" transform="translate(-1.432825,35.104461)" id="path3055-0" style="fill:#333333;fill-opacity:1;stroke:none"/>
      <path d="m 473.76156,476.57523 a 7.0710678,7.0710678 0 1 1 -14.14214,0 7.0710678,7.0710678 0 1 1 14.14214,0 z" transform="translate(14.459125,19.185871)" id="path3055-9" style="fill:#333333;fill-opacity:1;stroke:none"/>
      <path d="m 473.76156,476.57523 a 7.0710678,7.0710678 0 1 1 -14.14214,0 7.0710678,7.0710678 0 1 1 14.14214,0 z" transform="translate(-17.489745,19.170641)" id="path3055-4" style="fill:#333333;fill-opacity:1;stroke:none"/>
    </g>
    <rect width="9.5964489" height="3.0304585" x="392.94934" y="488.19199" id="rect3930" style="fill:#333333;fill-opacity:1;stroke:#000000;stroke-width:0;stroke-miterlimit:4;stroke-opacity:1;stroke-dasharray:none"/>
    <rect width="9.5964489" height="3.0304585" x="419.20187" y="488.19199" id="rect3930-8" style="fill:#333333;fill-opacity:1;stroke:#000000;stroke-width:0;stroke-miterlimit:4;stroke-opacity:1;stroke-dasharray:none"/>
  </g>
<script xmlns="" id="bw-fido2-page-script"/></svg>